<svg width="27" height="27" viewBox="0 0 27 27" fill="none" xmlns="http://www.w3.org/2000/svg">
<path d="M13.5 2.25C7.29675 2.25 2.25 7.29675 2.25 13.5C2.25 19.7033 7.29675 24.75 13.5 24.75C19.7033 24.75 24.75 19.7033 24.75 13.5C24.75 7.29675 19.7033 2.25 13.5 2.25ZM13.5 22.5C8.53763 22.5 4.5 18.4624 4.5 13.5C4.5 8.53763 8.53763 4.5 13.5 4.5C18.4624 4.5 22.5 8.53763 22.5 13.5C22.5 18.4624 18.4624 22.5 13.5 22.5Z" fill="#B1B1B1"/>
<path d="M14.625 7.875H12.375V14.625H19.125V12.375H14.625V7.875Z" fill="#B1B1B1"/>
</svg>
