<svg width="29" height="29" viewBox="0 0 29 29" fill="none" xmlns="http://www.w3.org/2000/svg">
<path d="M22.9587 4.83317H20.542V3.62484C20.542 3.30437 20.4147 2.99702 20.1881 2.77042C19.9615 2.54381 19.6541 2.4165 19.3337 2.4165C19.0132 2.4165 18.7058 2.54381 18.4792 2.77042C18.2526 2.99702 18.1253 3.30437 18.1253 3.62484V4.83317H10.8753V3.62484C10.8753 3.30437 10.748 2.99702 10.5214 2.77042C10.2948 2.54381 9.98746 2.4165 9.66699 2.4165C9.34652 2.4165 9.03918 2.54381 8.81257 2.77042C8.58596 2.99702 8.45866 3.30437 8.45866 3.62484V4.83317H6.04199C5.08058 4.83317 4.15855 5.21509 3.47873 5.89491C2.79891 6.57473 2.41699 7.49676 2.41699 8.45817V22.9582C2.41699 23.9196 2.79891 24.8416 3.47873 25.5214C4.15855 26.2013 5.08058 26.5832 6.04199 26.5832H22.9587C23.9201 26.5832 24.8421 26.2013 25.5219 25.5214C26.2017 24.8416 26.5837 23.9196 26.5837 22.9582V8.45817C26.5837 7.49676 26.2017 6.57473 25.5219 5.89491C24.8421 5.21509 23.9201 4.83317 22.9587 4.83317ZM24.167 22.9582C24.167 23.2786 24.0397 23.586 23.8131 23.8126C23.5865 24.0392 23.2791 24.1665 22.9587 24.1665H6.04199C5.72152 24.1665 5.41418 24.0392 5.18757 23.8126C4.96097 23.586 4.83366 23.2786 4.83366 22.9582V14.4998H24.167V22.9582ZM24.167 12.0832H4.83366V8.45817C4.83366 8.1377 4.96097 7.83036 5.18757 7.60375C5.41418 7.37714 5.72152 7.24984 6.04199 7.24984H8.45866V8.45817C8.45866 8.77864 8.58596 9.08598 8.81257 9.31259C9.03918 9.5392 9.34652 9.6665 9.66699 9.6665C9.98746 9.6665 10.2948 9.5392 10.5214 9.31259C10.748 9.08598 10.8753 8.77864 10.8753 8.45817V7.24984H18.1253V8.45817C18.1253 8.77864 18.2526 9.08598 18.4792 9.31259C18.7058 9.5392 19.0132 9.6665 19.3337 9.6665C19.6541 9.6665 19.9615 9.5392 20.1881 9.31259C20.4147 9.08598 20.542 8.77864 20.542 8.45817V7.24984H22.9587C23.2791 7.24984 23.5865 7.37714 23.8131 7.60375C24.0397 7.83036 24.167 8.1377 24.167 8.45817V12.0832Z" fill="#B1B1B1"/>
</svg>
