<svg width="40" height="41" viewBox="0 0 40 41" fill="none" xmlns="http://www.w3.org/2000/svg">
<g clip-path="url(#clip0_8083_8930)">
<path d="M22.3805 23.3526C22.6678 23.3526 22.9433 23.4766 23.1465 23.6972C23.3496 23.9178 23.4638 24.2171 23.4638 24.5291V33.9409C23.4638 34.2529 23.3496 34.5522 23.1465 34.7728C22.9433 34.9934 22.6678 35.1174 22.3805 35.1174H11.9964C11.4218 35.1175 10.8708 35.3655 10.4646 35.8068L8.29811 38.1598V24.5291C8.29811 24.2171 8.41223 23.9178 8.61539 23.6972C8.81854 23.4766 9.09407 23.3526 9.38137 23.3526H22.3805ZM9.38137 22.1761C8.80677 22.1761 8.25571 22.424 7.8494 22.8653C7.4431 23.3066 7.21484 23.9051 7.21484 24.5291V39.5798C7.21487 39.6962 7.24668 39.8099 7.30627 39.9067C7.36585 40.0034 7.45053 40.0788 7.54957 40.1233C7.64862 40.1677 7.75758 40.1793 7.86267 40.1565C7.96777 40.1336 8.06426 40.0775 8.13995 39.9951L11.2305 36.6386C11.4336 36.4179 11.7091 36.2939 11.9964 36.2939H22.3805C22.9551 36.2939 23.5062 36.046 23.9125 35.6047C24.3188 35.1634 24.547 34.565 24.547 33.9409V24.5291C24.547 23.9051 24.3188 23.3066 23.9125 22.8653C23.5062 22.424 22.9551 22.1761 22.3805 22.1761H9.38137Z" fill="white"/>
<path d="M15.8808 26.0326C15.5535 26.0326 15.2335 26.138 14.9614 26.3355C14.6892 26.533 14.4771 26.8137 14.3518 27.1422C14.2266 27.4706 14.1938 27.832 14.2576 28.1806C14.3215 28.5293 14.4791 28.8496 14.7106 29.1009C14.942 29.3523 15.2369 29.5235 15.558 29.5928C15.879 29.6622 16.2118 29.6266 16.5142 29.4906C16.8166 29.3545 17.075 29.1241 17.2569 28.8286C17.4387 28.533 17.5358 28.1855 17.5358 27.83C17.5358 27.3533 17.3614 26.8961 17.0511 26.559C16.7407 26.222 16.3198 26.0326 15.8808 26.0326ZM15.8808 28.9084C15.6844 28.9084 15.4924 28.8452 15.3292 28.7267C15.1659 28.6082 15.0386 28.4397 14.9634 28.2427C14.8883 28.0456 14.8686 27.8288 14.9069 27.6196C14.9452 27.4104 15.0398 27.2182 15.1787 27.0674C15.3175 26.9166 15.4945 26.8139 15.6871 26.7723C15.8797 26.7307 16.0794 26.752 16.2608 26.8336C16.4423 26.9153 16.5974 27.0535 16.7065 27.2308C16.8156 27.4082 16.8738 27.6167 16.8738 27.83C16.8738 28.116 16.7692 28.3903 16.583 28.5926C16.3968 28.7948 16.1442 28.9084 15.8808 28.9084ZM18.8598 32.8627V32.5032C18.8598 31.8358 18.6157 31.1958 18.1812 30.7239C17.7467 30.252 17.1573 29.9869 16.5428 29.9869H15.2188C14.6043 29.9869 14.015 30.252 13.5805 30.7239C13.146 31.1958 12.9019 31.8358 12.9019 32.5032V32.8627H13.5638V32.5032C13.5638 32.0265 13.7382 31.5693 14.0486 31.2323C14.359 30.8952 14.7799 30.7058 15.2188 30.7058H16.5428C16.9817 30.7058 17.4027 30.8952 17.7131 31.2323C18.0234 31.5693 18.1978 32.0265 18.1978 32.5032V32.8627H18.8598Z" fill="white"/>
</g>
<path d="M21.8672 14.5945C21.5648 14.5945 21.2747 14.7253 21.0609 14.9582C20.8471 15.1911 20.7269 15.507 20.7269 15.8363V25.771C20.7269 26.1004 20.8471 26.4163 21.0609 26.6491C21.2747 26.882 21.5648 27.0129 21.8672 27.0129H32.7979C33.4027 27.013 33.9826 27.2748 34.4102 27.7406L36.6908 30.2243V15.8363C36.6908 15.507 36.5706 15.1911 36.3568 14.9582C36.143 14.7253 35.8529 14.5945 35.5505 14.5945H21.8672ZM35.5505 13.3527C36.1553 13.3527 36.7354 13.6143 37.1631 14.0801C37.5908 14.5459 37.8311 15.1776 37.8311 15.8363V31.7232C37.831 31.846 37.7975 31.9661 37.7348 32.0682C37.6721 32.1704 37.583 32.2499 37.4787 32.2969C37.3745 32.3438 37.2598 32.356 37.1491 32.3319C37.0385 32.3078 36.9369 32.2485 36.8573 32.1615L33.6041 28.6186C33.3903 28.3857 33.1003 28.2548 32.7979 28.2547H21.8672C21.2624 28.2547 20.6823 27.993 20.2546 27.5273C19.8269 27.0615 19.5866 26.4297 19.5866 25.771V15.8363C19.5866 15.1776 19.8269 14.5459 20.2546 14.0801C20.6823 13.6143 21.2624 13.3527 21.8672 13.3527H35.5505Z" fill="#0EBAC5"/>
<path d="M28.7095 17.4238C28.3649 17.4238 28.0281 17.5351 27.7416 17.7436C27.4552 17.952 27.2319 18.2484 27.1 18.595C26.9682 18.9417 26.9337 19.3232 27.0009 19.6912C27.0681 20.0592 27.234 20.3973 27.4776 20.6626C27.7213 20.928 28.0317 21.1087 28.3696 21.1819C28.7076 21.2551 29.0578 21.2175 29.3762 21.0739C29.6945 20.9303 29.9666 20.6871 30.158 20.3751C30.3494 20.0631 30.4516 19.6963 30.4516 19.3211C30.4516 18.8179 30.268 18.3353 29.9413 17.9795C29.6146 17.6237 29.1715 17.4238 28.7095 17.4238ZM28.7095 20.4594C28.5028 20.4594 28.3007 20.3927 28.1288 20.2676C27.9569 20.1425 27.8229 19.9647 27.7438 19.7567C27.6647 19.5487 27.644 19.3198 27.6843 19.099C27.7247 18.8782 27.8242 18.6753 27.9704 18.5161C28.1166 18.3569 28.3028 18.2485 28.5056 18.2046C28.7083 18.1607 28.9185 18.1832 29.1095 18.2694C29.3005 18.3555 29.4637 18.5014 29.5786 18.6886C29.6934 18.8758 29.7547 19.0959 29.7547 19.3211C29.7547 19.623 29.6446 19.9125 29.4486 20.126C29.2526 20.3395 28.9867 20.4594 28.7095 20.4594ZM31.8452 24.6334V24.2539C31.8452 23.5495 31.5883 22.8739 31.1309 22.3757C30.6735 21.8776 30.0532 21.5978 29.4063 21.5978H28.0127C27.3658 21.5978 26.7455 21.8776 26.2881 22.3757C25.8307 22.8739 25.5737 23.5495 25.5737 24.2539V24.6334H26.2706V24.2539C26.2706 23.7507 26.4541 23.2682 26.7808 22.9124C27.1075 22.5566 27.5506 22.3567 28.0127 22.3567H29.4063C29.8684 22.3567 30.3115 22.5566 30.6382 22.9124C30.9649 23.2682 31.1484 23.7507 31.1484 24.2539V24.6334H31.8452Z" fill="#0EBAC5"/>
<path d="M1 15.8539L5.70536 18.7779M11.2861 4.85967L14.1312 10.3568M25.074 1V7.08191M38.9712 4.85967L36.2355 10.3568" stroke="white" stroke-width="1.20192" stroke-linecap="round"/>
<defs>
<clipPath id="clip0_8083_8930">
<rect width="19.4987" height="20.0001" fill="white" transform="translate(6.13184 20.9996)"/>
</clipPath>
</defs>
</svg>
