<?xml version="1.0" encoding="UTF-8"?>
<svg id="Layer_1" data-name="Layer 1" xmlns="http://www.w3.org/2000/svg" viewBox="0 0 348.12 393.18">
  <path d="M247.96,38.68c-3.47-1.99-6.84-4.13-10.41-5.97-3.04-1.56-5.92-3.52-8.85-5.33-1.58-.97-3.4-1.55-4.77-2.9-.69-.69-1.93-.18-2.58-.85-1.75-1.79-4.06-2.7-6.05-4.09-2.48-1.73-5.29-2.84-7.86-4.38-1.26-.75-2.49-1.54-3.76-2.28-2.99-1.75-6.09-3.29-9.11-4.97-1.86-1.04-3.43-2.59-5.41-3.56-3.52-1.72-7-3.31-10.95-3.96-4.51-.75-8.87-.41-13.06,1.12-3.54,1.29-7.02,2.83-10.02,5.29-1.92,1.58-4.24,2.58-6.51,3.63-2.14,.99-4.01,2.43-6.04,3.61-3.9,2.27-7.78,4.58-11.77,6.7-1.04,.55-1.99,1.26-2.94,1.95-2.02,1.46-4.41,2.2-6.53,3.44-1.35,.79-2.58,1.8-3.94,2.58-3.13,1.79-6.43,3.31-9.43,5.29-3.64,2.4-7.51,4.4-11.19,6.74-3.17,2.01-6.57,3.72-9.89,5.51-2.62,1.41-5.33,2.77-7.54,4.85-.23,.22-.44,.41-.8,.52-3.48,1.05-6.24,3.42-9.36,5.12-2.69,1.46-5.22,3.26-8.12,4.33-.18,.07-.35,.23-.47,.34-2.51,2.18-5.68,3.3-8.35,5.2-.45,.32-.95,.62-1.47,.81-1.42,.51-2.78,.95-3.84,2.23-.37,.45-1.51,.75-2.15,1.13-2.99,1.81-6.1,3.42-9.08,5.24-2.04,1.24-3.97,2.77-6.32,3.52-1.17,.38-2.01,1.38-3.1,1.96-5.24,2.78-10.23,6-15.36,8.97-1.88,1.09-2.97,3.03-4.59,4.39-2.54,2.15-3.48,5.28-5.05,8.02-.4,.69-.34,1.54-.45,2.29-.6,4.16-1.07,8.35-.71,12.57,.03,.38,0,.76,0,1.14,0,56.14-.01,112.29,.03,168.43,0,2.92,.99,5.68,2.24,8.34,1.84,3.93,4.66,7.05,8.06,9.58,2.6,1.93,5.23,3.91,8.3,5.1,.93,.36,1.53,1.08,2.3,1.62,1.13,.8,2.43,1.34,3.73,1.84,.77,.3,1.52,.66,2.14,1.28,1.77,1.77,4.12,2.7,6.25,3.83,2.18,1.16,4.21,2.69,6.65,3.35,.24,.06,.34,.21,.48,.34,3.81,3.51,8.75,5.2,13.01,8.02,2.9,1.92,6.04,3.72,9.33,5.15,2.19,.95,4.12,2.65,6.27,3.78,3.2,1.68,6.17,3.73,9.4,5.37,2.47,1.26,4.91,2.74,7.23,4.32,2.03,1.38,4.49,2.07,6.2,3.92,.35,.38,.82,.45,1.16,.44,1.1-.03,1.8,.44,2.29,1.35,.19,.36,.47,.61,.82,.82,3.76,2.33,7.47,4.77,11.29,6.99,2.66,1.55,9.13,1.47,12.45-1.04,3.32-2.51,4.31-5.78,4.33-9.55,.07-11,.07-22,0-33-.02-2.67-.97-5.2-1.93-7.68-.25-.64-.74-1.08-1.29-1.48-.94-.7-1.93-1.38-2.3-2.6-.12-.41-.43-.64-.81-.82-4.93-2.39-9.49-5.42-14.21-8.18-2.36-1.38-4.9-2.49-7.15-3.97-4.68-3.09-9.76-5.48-14.45-8.55-2.97-1.94-6.19-3.51-9.28-5.27-1-.57-2.01-1.13-2.93-1.81-1.22-.89-2.59-1.47-3.89-2.18-2.27-1.24-4.83-2.06-6.59-4.16-.74-.88-1.84-1.28-2.92-1.65-3.24-1.13-3.63-2.14-3.72-5.39-.44-15.79-.17-31.58-.19-47.38-.04-27.28-.02-54.57,.01-81.85,0-2.12,.1-4.25,.15-6.37,.05-2.01,1.15-3.34,2.92-4.26,3.96-2.06,7.87-4.22,11.63-6.65,1.81-1.17,3.63-2.39,5.69-3.15,1.81-.67,3.21-2.04,4.89-2.96,4.41-2.41,8.88-4.76,13.04-7.56,3.11-2.09,6.69-3.28,9.68-5.5,3.45-2.56,7.37-4.34,11.02-6.58,2.7-1.67,5.49-3.26,8.26-4.85,7.05-4.04,14.1-8.08,21.06-12.28,2.45-1.48,5.11-2.52,7.44-4.29,2.4-1.82,5.36-2.88,7.92-4.53,2.56-1.64,5.42-2.71,7.88-4.52,3.06-2.25,6.67-3.55,9.97-5.38,.25-.14,.74-.13,1.14,.12,3.69,2.35,7.58,4.35,11.33,6.6,3.05,1.83,6.11,3.73,9.35,5.3,1.99,.96,4.06,2.04,5.83,3.58,1.48,1.28,3.45,1.99,5.17,3.01,3.39,1.99,6.67,4.2,10.17,5.97,2.13,1.08,4.25,2.25,6.27,3.45,2.75,1.62,5.53,3.24,8.28,4.87,3.92,2.32,7.78,4.77,11.87,6.8,1.51,.75,2.7,2.06,4.26,2.75,3.44,1.53,6.45,3.81,9.71,5.59,3,1.64,5.87,3.55,9.02,4.99,2.31,1.05,4.38,2.81,6.63,4.05,2.55,1.4,4.82,3.41,7.79,4.03,.36,.07,.73,.36,.97,.64,2.08,2.4,5.2,3.14,7.71,4.85,1.33,.91,2.8,1.64,4.36,2.22,1.53,.58,1.83,2.14,1.83,3.7-.01,8.39,0,16.77,0,25.16,0,6.26-.04,12.53,.02,18.79,.03,3.16,1.5,5.63,3.89,7.7,4.98,4.32,11.18,6.68,16.59,10.33,2.9,1.95,6.22,3.43,9.37,5.07,1.56,.81,2.76,2.27,4.43,3.07,3.41,1.65,6.9,2.56,10.63,1.42,1.92-.59,3.66-1.46,4.95-3.22,1.85-2.53,2.58-5.3,2.58-8.36,0-26.14,.01-52.28-.02-78.42,0-3.94-.79-7.78-2.66-11.24-1.28-2.38-2.25-5.07-4.82-6.61-.96-.58-1.7-1.56-2.45-2.43-.36-.42-.63-.94-1.17-1.12-2.57-.86-4.59-2.81-7.18-3.62-.41-.13-.8-.34-1.16-.63-2.53-2.09-5.61-3.29-8.3-5.11-1.91-1.3-4-2.3-5.98-3.43-2.22-1.27-4.37-2.73-6.72-3.86-2.77-1.33-5.42-3.1-8.08-4.74-2.68-1.65-5.39-3.25-8.18-4.71-1.11-.58-2.06-1.33-3.08-2-2.4-1.56-4.98-2.77-7.52-4.08-2.72-1.41-5.14-3.29-7.83-4.77-1.14-.62-2.18-1.44-3.45-1.74-.32-.08-.62-.23-.79-.38-2.4-2.16-5.36-3.49-8.09-5.1-2.49-1.47-5-3.01-7.74-4.13-1.66-.68-3.11-2.05-4.78-2.91" fill="white"/>
  <path d="M173.46,163.82c-3.43-2.3-7.02-4.35-10.63-6.36-2.82-1.57-5.62-3.16-8.37-4.84-1.91-1.17-3.88-2.33-5.99-3.19-2.03-.83-3.75-2.31-5.45-3.56-1.66-1.22-3.45-1.69-5.18-2.44-3.15-1.37-6.45-1.55-9.79-.84-1.67,.35-3.28,1.07-4.69,1.88-2.3,1.33-4.64,2.63-6.83,4.21-1.46,1.06-3.25,1.94-4.97,2.75-1.88,.87-3.72,1.83-5.4,3.08-1.52,1.12-3.07,2.15-4.88,2.83-1.47,.55-2.77,1.56-4.08,2.44-2.6,1.76-5.56,2.85-8.24,4.46-1.74,1.05-3.42,2.17-4.81,3.55-2.72,2.7-5.07,5.7-4.79,9.92,.17,2.46-.5,5.02,.69,7.34,1.28,2.52,2.38,5.12,3.87,7.55,1.4,2.28,2.81,4.57,3.95,7.01,.78,1.66,2.27,2.88,2.92,4.58,1.43,3.77,4.45,6.02,7.74,7.76,3.73,1.98,7.76,2.19,11.91,.79,1.99-.67,3.78-1.68,5.49-2.74,2.74-1.71,5.69-3.03,8.41-4.77,1.83-1.17,3.48-2.69,5.66-3.38,1.48-.47,2.72-.68,4.11,.2,3.02,1.91,6.07,3.76,9.15,5.55,1.18,.69,2.55,1.01,3.59,1.97,.98,.9,1.49,1.86,1.49,3.28-.04,54.67-.03,109.35-.03,164.02,0,2.09,.56,4.12,.73,6.2,.08,1.08,1.01,2.04,1.73,2.94,1.57,1.95,3.32,3.64,5.52,4.95,4.75,2.83,9.59,2.8,14.55,.91,1.23-.47,2.28-1.35,3.37-2.13,2.01-1.44,3.64-3.27,5.61-4.73,2.18-1.61,4.45-3.1,6.43-5,1.64-1.57,3.46-2.98,5.33-4.33,2.69-1.94,5.35-4.06,7.14-6.87,1.23-1.93,1.92-4.26,2.04-6.65,.35-7.4,.07-14.81,.16-22.22,.38-31.58,.06-63.17,.16-94.75,0-2.61,0-2.61,.91-3.53,2.36,1.49,5.01,2.53,7.29,4.3,1.78,1.38,3.94,2.25,5.83,3.5,1.9,1.26,3.98,2.19,5.95,3.31,2.54,1.45,4.86,3.24,7.59,4.42,2.55,1.1,4.96,2.64,7.22,4.34,.43,.33,.78,.77,1.31,.97,3.97,1.51,7.38,3.98,10.97,6.16,2.49,1.51,5.15,2.76,7.67,4.26,2.45,1.46,4.87,2.99,7.32,4.47,.59,.35,1.07,.75,1.81,.81,2.18,.18,3.3,2.15,5.04,3.12,4.02,2.24,8.03,4.51,12.06,6.75,2.44,1.35,4.94,2.69,7.24,4.31,2.54,1.79,5.34,3.16,7.99,4.76,3.59,2.17,7.31,4.12,10.96,6.19,4.32,2.45,8.7,3.4,13.59,1.4,2.27-.93,4.17-2.08,6.06-3.62,3.29-2.69,5.67-6.22,8.79-9.02,1.56-1.4,2.85-3.07,4.43-4.39,1.78-1.48,3.29-3.22,4.62-5.01,1.47-1.97,2.4-4.33,2.38-6.97-.05-9.97-.01-19.93-.02-29.9,0-2.69-1.18-4.96-2.97-6.83-1.32-1.38-2.94-2.43-4.68-3.35-4.11-2.18-8.05-4.69-12.13-6.95-2.69-1.49-5.2-3.27-7.97-4.65-1.65-.82-3.13-1.99-4.75-2.91-1.92-1.09-3.99-1.73-6.06-2.42-1.63-.54-3.25-.48-4.9-.02-1.75,.5-3.77,.97-4.95,2.08-1.68,1.59-3.11,3.66-3.72,6.09-.38,1.52-.3,3.05-.31,4.58-.02,2.16-1.02,2.83-2.76,1.61-4.38-3.06-9.28-5.21-13.82-8.02-3.07-1.91-6.13-4-9.55-5.39-1.71-.7-3.13-2-4.7-2.98-2.04-1.28-4.19-2.36-6.3-3.44-2.99-1.54-5.52-3.81-8.62-5.14-1.47-.63-2.53-1.91-4.08-2.47-2.22-.81-4.12-2.14-5.92-3.7-1.18-1.02-2.85-1.31-4.25-2.1-2.16-1.22-4.14-2.8-6.51-3.61-.6-.2-1.03-.61-1.41-.92-2.76-2.19-6.15-3.27-8.99-5.23-3.02-2.08-6.29-3.69-9.34-5.68-.74-.48-1.47-.93-2.31-1.09-.66-.13-1.32-.36-1.77-.71-2.87-2.27-5.96-4.12-9.33-5.54-.55-.23-.97-.76-1.48-1.12-3.15-2.21-6.7-3.71-9.96-5.72-2.5-1.54-5.02-3.03-7.51-4.59-.72-.45-1.5-.69-2.3-.77-.64-.06-.9-.45-1.22-.85" fill="white"/>
</svg>