<?xml version="1.0" encoding="UTF-8"?>
<svg id="Layer_1" data-name="Layer 1" xmlns="http://www.w3.org/2000/svg" viewBox="0 0 159.54 230.32" width="150px">
  <path d="M156.87,152.95l-23.78-33.17h12.27c11.54,0,18.24-13.05,11.51-22.42L91.29,5.91c-5.65-7.88-17.37-7.88-23.03,0L2.68,97.36c-6.72,9.37-.02,22.42,11.51,22.42h12.27L2.68,152.95c-6.72,9.37-.02,22.42,11.51,22.42h11.81L2.68,207.9c-6.72,9.37-.02,22.42,11.51,22.42H145.35c11.54,0,18.24-13.05,11.51-22.42l-23.32-32.52h11.81c11.54,0,18.24-13.05,11.51-22.42Z"/>
</svg>