<?xml version="1.0" encoding="UTF-8"?>
<svg id="Layer_1" data-name="Layer 1" xmlns="http://www.w3.org/2000/svg" xmlns:xlink="http://www.w3.org/1999/xlink" viewBox="0 0 246.81 185.31" width="150px">
  <defs>
    <linearGradient id="linear-gradient" x1="0" y1="92.65" x2="248.23" y2="92.65" gradientUnits="userSpaceOnUse">
      <stop offset="0" stop-color="#d9e021"/>
      <stop offset=".24" stop-color="#e09841"/>
      <stop offset=".49" stop-color="#e7565f"/>
      <stop offset=".67" stop-color="#eb2d71"/>
      <stop offset=".76" stop-color="#ed1e79"/>
    </linearGradient>
  </defs>
  <path d="M242.67,150.62L141.22,9.15c-8.74-12.19-26.88-12.19-35.62,0L4.15,150.62c-10.4,14.5-.03,34.69,17.81,34.69H224.86c17.85,0,28.21-20.19,17.81-34.69ZM109.2,37.52c2.79-3.28,6.64-4.91,11.54-4.91s8.73,1.62,11.49,4.87c2.76,3.25,4.14,7.81,4.14,13.67,0,3.7-1.82,12.45-5.47,26.24-3.65,13.79-5.87,26.09-6.67,36.92h-7.01c-.74-10.82-2.96-23.13-6.67-36.92-3.7-13.79-5.55-22.53-5.55-26.24,0-5.81,1.39-10.35,4.19-13.63Zm22.65,122.5c-3.13,3.13-6.89,4.7-11.28,4.7s-8.11-1.55-11.15-4.66c-3.05-3.1-4.57-6.85-4.57-11.24s1.52-8.19,4.57-11.24c3.05-3.05,6.76-4.57,11.15-4.57s8.22,1.52,11.32,4.57c3.1,3.05,4.66,6.79,4.66,11.24s-1.57,8.06-4.7,11.19Z" style="fill: url(#linear-gradient);"/>
</svg>